<?xml version="1.0" encoding="UTF-8" standalone="no"?>
<svg width="125px" height="39px" viewBox="0 0 125 39" version="1.1" xmlns="http://www.w3.org/2000/svg" xmlns:xlink="http://www.w3.org/1999/xlink">
    <!-- Generator: Sketch 3.7.2 (28276) - http://www.bohemiancoding.com/sketch -->
    <title>Logo</title>
    <desc>Created with Sketch.</desc>
    <defs></defs>
    <g id="Page-1" stroke="none" stroke-width="1" fill="none" fill-rule="evenodd">
        <g id="Logo" transform="translate(1.000000, 0.000000)">
            <path d="M27.8084643,32.0319661 C27.2693214,32.3806441 26.72775,32.4552712 26.2493214,32.2621186 C25.3052143,31.8827119 24.6258214,30.9150678 24.352,29.9028983 L24.352,29.9016441 C24.0793929,29.0067458 23.7181429,28.738339 23.7181429,28.738339 C23.281,28.3890339 22.7175714,28.4040847 22.1128571,28.9985932 C22.6538214,26.766678 21.3041429,25.2873051 18.5319286,26.6418814 C18.5319286,26.6418814 15.5848571,28.1908644 16.6783214,30.1938814 C16.9521429,30.7156441 17.4056786,31.1558814 17.8743929,31.3797627 C17.3237143,31.9077966 16.9533571,32.5023051 15.2758214,32.7493898 C11.5352143,33.3018814 9.1606786,30.1067119 7.5626786,27.8691525 C8.0993929,25.2666102 7.8765714,22.2094068 7.7788214,20.7758136 C7.7193214,19.9103898 8.0921071,18.4849492 8.6470357,17.9111356 C9.5765714,16.9516441 9.9505714,16.5872881 11.4344286,15.0320339 C16.243,9.99376271 16.45975,-0.721186441 9.9013929,0.745016949 C6.0921786,1.59664407 4.8845714,7.83459322 5.4880714,12.3931186 C5.7266786,14.192322 6.20025,16.2868983 6.0272143,17.4188475 C5.7309286,19.3785932 3.0364286,20.6152712 3.5901429,21.6148983 C4.5688571,22.813322 6.4819643,20.5939492 6.6367857,21.1953559 C7.1789643,23.0378305 6.5839643,25.2697458 6.4333929,27.0695763 C4.5925357,25.7570169 0.9836786,26.7039661 0.5143571,28.6975763 C0.3637857,29.4839831 0.4718571,30.4121186 0.7438571,31.0367288 C2.1129643,33.1488644 6.3653929,32.8647797 7.2214643,29.3968136 C8.7545,31.5334068 12.4847857,34.499678 15.8398571,33.4918983 C17.6546071,33.0090169 18.2714643,32.4051017 18.8263929,31.6657288 C18.8324643,31.6575763 18.8367143,31.650678 18.8415714,31.6444068 C20.561,31.1402034 23.0035357,29.2017797 23.638,30.5964915 C24.0277857,31.4537627 24.8875,32.4985424 26.0331786,32.9607288 C26.28575,33.062322 26.5462143,33.1131186 26.8121429,33.1131186 C27.2668929,33.1131186 27.7343929,32.9632373 28.1927857,32.6672373 C28.3621786,32.5568644 28.4143929,32.3267119 28.3069286,32.1511186 C28.2012857,31.9767797 27.9784643,31.9228475 27.8084643,32.0319661 L27.8084643,32.0319661 L27.8084643,32.0319661 Z M2.371,31.0574237 C0.7250357,28.3426271 4.5567143,25.9808983 6.2306071,28.3294576 C6.3690357,30.4415932 3.43775,32.4916441 2.371,31.0574237 L2.371,31.0574237 L2.371,31.0574237 Z M7.1983929,17.3849831 C6.6744286,14.6538814 6.2670357,12.062 6.5105,8.45857627 C6.7436429,5.00315254 9.8352143,0.339271186 12.54975,2.58059322 C15.5138214,5.02761017 13.3068571,11.3176102 11.1096071,14.0725424 C10.1648929,15.2565424 8.5025357,16.882661 7.1983929,17.3849831 L7.1983929,17.3849831 L7.1983929,17.3849831 Z M17.9466429,30.0364746 C17.1537143,29.6363729 17.5362143,27.8791864 18.8087857,27.3756102 C19.5361429,27.0789831 21.1104643,26.8387966 21.1766429,27.4878644 C21.3181071,29.3491525 19.5106429,30.6980847 17.9466429,30.0364746 L17.9466429,30.0364746 Z M121.710393,30.8297797 C121.571357,30.6698644 121.333964,30.6598305 121.180357,30.8015593 C120.652143,31.2944746 119.958179,31.5064407 119.219893,31.3998305 C118.525929,31.2982373 117.562393,30.7231695 117.378429,30.1995254 C117.266107,29.8796949 117.296464,29.5272542 117.748179,28.9377627 C118.547786,27.8954915 118.789429,26.4274068 117.952786,25.0916441 L117.887214,25.0076102 C117.394821,24.4444576 117.215714,24.4927458 116.869036,24.5015254 C116.339607,24.5730169 115.572786,25.2942034 115.376071,26.0862542 C115.096786,27.2131864 115.467143,28.622322 116.039679,29.5002881 L116.227893,29.7875085 C116.356607,29.9430339 116.304393,30.1493559 116.100393,30.3494068 C115.128357,31.3195593 113.836964,31.4506271 112.405929,31.0831356 C110.255429,30.5262542 108.114036,28.0240508 108.120107,26.5841864 C108.133464,23.1212373 109.019286,19.9856441 108.506857,17.4075593 C108.201464,15.8717458 108.443714,13.8417627 107.72,14.6607797 C105.971429,16.639339 107.628929,24.6125254 106.551857,26.1213729 C106.261036,26.5622373 106.261036,26.5622373 106.217321,26.6218136 C105.899179,27.0607966 105.687286,27.2671186 105.443821,27.5856949 C105.34425,27.7186441 105.443821,27.5856949 105.078929,28.0403559 C103.939321,26.9441525 102.754179,26.4042034 101.709286,26.4042034 C100.641321,26.4042034 99.757321,27.1623898 99.370571,28.1062034 C99.258857,28.3796271 99.201786,28.6718644 99.1945,28.9653559 C99.152,29.0054915 99.116786,29.055661 99.093714,29.1146102 C98.842357,29.7799831 98.3955,30.2214746 97.853321,30.3751186 C96.790821,30.6767627 96.548571,28.749 94.694964,28.6913051 C94.084786,28.6724915 94.652464,27.9870508 94.475179,27.1310339 C93.753286,24.3096271 91.430964,24.7730678 89.63625,27.0175254 C89.123821,27.6590678 88.359429,29.1861017 89.532429,30.7708305 C89.462607,31.0285763 88.736464,31.613678 88.132964,31.6343729 C86.065643,31.5327797 84.681357,28.9804068 83.585464,27.2890678 C83.585464,27.2890678 83.827714,27.7217797 83.585464,27.290322 C83.343214,26.8588644 82.685679,25.8285085 82.696607,24.6357288 C82.706321,23.5382712 84.898107,17.929322 84.277,11.2417288 C84.173786,10.1285932 83.765786,5.67542373 81.662643,6.43110169 C80.841179,6.72584746 78.493357,10.2816102 79.303286,17.7399322 C79.468429,19.2575593 80.013036,21.8488136 80.968679,24.0136271 L80.972321,24.0136271 C81.219429,24.5780339 81.713036,25.3349661 81.774357,25.7444746 C81.808964,25.9783898 81.476857,27.1304068 81.188464,27.7362034 C80.467179,29.1227627 79.303286,30.1995254 78.177036,30.2402881 C77.030143,30.281678 76.671929,29.1484746 76.569929,28.1952542 C76.568714,28.1845932 76.562643,28.1714237 76.559,28.1607627 C76.495857,27.7211525 76.4655,27.5323898 76.291857,27.0551525 C76.028357,26.3314576 75.378107,26.6312203 75.133429,26.8507119 C74.763679,27.1824576 74.468607,28.0742203 74.468607,28.0742203 C74.162607,28.8951186 73.313821,30.3105254 72.930107,30.3092712 C72.556714,30.2992373 72.140214,29.2952203 71.932571,28.3714746 C71.808107,27.8196102 71.666036,27.2156949 71.453536,26.6864068 C71.240429,26.0712034 71.077107,25.3443729 70.466929,25.4008136 C69.856143,25.456 69.843393,26.3032373 69.843393,26.3032373 C69.808786,26.8732881 69.740786,27.036339 69.695857,27.4922542 C69.534357,28.3677119 68.563536,30.8072034 67.790036,30.022678 C68.2035,29.1396949 68.066893,28.2548305 67.970964,27.4841017 C67.692893,25.2484237 65.195107,24.7128644 64.184821,26.1163559 C63.288679,27.3611864 63.362143,29.0456271 63.548536,29.774339 C62.594714,30.4008305 62.047679,31.0110169 60.491571,30.4829831 C58.935464,29.9549492 58.336821,27.395678 58.099429,24.7492373 C57.588214,19.0625254 58.286429,12.0494576 57.655,12.1040169 C57.208143,12.1805254 56.816536,13.9057288 56.511143,14.9185254 C56.022393,16.5396271 54.037036,23.912661 53.186429,24.4839661 C52.963607,21.3803559 52.620571,16.0460847 52.473036,12.5944237 C52.402,10.9156271 52.425071,6.97230508 51.8598214,6.03664407 C51.0614286,4.7159322 50.7493571,10.4841695 50.5502143,11.7691356 C50.36625,12.9575254 48.8083214,21.4531017 45.3136071,28.1494746 C43.9973214,30.6717458 41.6470714,33.8211356 41.2827857,34.3510508 C39.2112143,37.3643559 42.2414643,36.4613051 42.9597143,35.2403051 C44.4569286,32.6960847 48.6674643,23.9860339 49.9357857,18.891322 C50.7256786,15.7193559 51.4323929,13.2528983 51.59875,12.7524576 C51.9156786,17.3962712 52.089929,28.2598475 52.768714,27.7336949 C53.146357,27.475322 54.100786,25.8027966 54.520929,24.6256949 C55.009071,23.2610847 55.710321,20.6234237 56.21425,19.0493559 L57.058786,16.5095254 C57.100679,19.3817288 55.534857,31.9228475 61.330643,31.7309492 C62.326357,31.6977119 63.278964,31.1546271 63.878821,30.5488305 C64.393679,31.5384237 65.944321,32.6484237 67.261214,30.9959661 C67.381429,31.1144915 69.712857,32.4264237 70.466929,27.0049831 C70.478464,26.9127966 70.573786,26.8720339 70.619321,27.0062373 C70.816643,27.5098136 70.942321,28.0052373 71.066786,28.5633729 C71.321786,29.6965763 72.046107,31.8300339 72.772857,31.8300339 C73.617393,31.8300339 74.633143,30.2779153 74.953714,29.2463051 C75.624607,27.0883898 75.733286,28.1457119 75.893571,28.8462034 C76.378071,30.9664915 77.490357,31.2762881 78.106,31.2568475 C79.921964,31.1991525 82.0245,29.0406102 82.295286,26.8852034 C82.633464,28.1181186 85.023786,32.5944915 87.955679,32.5944915 C88.948357,32.6615932 90.312,31.4876271 90.375143,31.5246271 C90.91975,31.8438305 91.732107,31.9209661 92.335607,31.3678475 C92.335607,31.3678475 92.703536,31.0630678 93.013786,30.6303559 C93.790929,29.4670508 94.82125,29.452 95.540107,30.0364746 C96.466,30.7908983 96.98025,31.7930339 98.251607,31.3527966 C98.92675,31.1188814 99.527214,30.2898305 99.527214,30.2898305 C99.958893,31.0423729 100.716,31.5302712 101.661929,31.6287288 C101.762714,31.6393898 101.926643,31.6431525 101.926643,31.6431525 L101.926643,31.6450339 C103.565929,31.6450339 104.527643,30.4303051 105.248321,29.2996102 C105.316321,29.3535424 105.889464,29.8715424 106.07525,30.0207966 C106.176643,30.1048305 106.27925,30.1731864 106.399464,30.1731864 C106.501464,30.1731864 106.60225,30.1361864 106.685429,30.0609322 C106.864536,29.8991356 106.891857,29.6081525 106.724286,29.4313051 C106.495393,29.1892373 105.855464,28.6580678 105.855464,28.6580678 C105.855464,28.6580678 106.880929,27.1623898 107.261,26.920322 C107.800143,29.2713898 109.847429,31.3785085 112.234107,31.9949661 C112.681571,32.1116102 113.1175,32.1667966 113.538857,32.1667966 C114.719143,32.1667966 116.1605,31.7108814 116.626179,30.8191186 C116.998964,30.1048305 117.196286,31.9642373 119.11425,32.1555085 C119.765107,32.2201017 121.105071,31.9159492 121.684286,31.3747458 C121.837893,31.2305085 121.849429,30.9884407 121.710393,30.8297797 L121.710393,30.8297797 Z M65.753071,30.8310339 C65.031786,30.8667797 64.638357,30.4127458 64.417357,29.3315932 C64.16175,28.0836271 64.991107,25.5876949 66.136179,26.296339 C67.485857,27.131661 67.222357,30.757661 65.753071,30.8310339 L65.753071,30.8310339 L65.753071,30.8310339 Z M82.060929,24.0136271 L82.034214,24.0136271 C81.584321,22.8465593 81.217607,21.7001864 80.91525,20.598339 C80.463536,18.7282712 80.050679,16.6029661 80.051893,13.4002712 C80.169071,11.2084915 80.734929,7.97883051 81.861179,7.97883051 C82.450714,7.97883051 83.143464,10.3380508 83.263679,11.9767119 C83.44825,14.4375254 83.258821,16.4474407 83.045107,18.7082034 C83.028107,18.8844237 82.919429,19.5924407 82.900607,19.6984237 C82.763393,20.4578644 82.570321,21.4838305 82.437357,22.2432712 C82.339,22.807678 82.1605,23.4485932 82.060929,24.0136271 L82.060929,24.0136271 L82.060929,24.0136271 Z M91.373286,30.4591525 C90.427964,30.6397627 89.421929,29.0312034 90.118929,27.8559831 C90.627714,26.9974576 91.546929,26.0204068 92.600929,26.1163559 C94.036214,26.2474237 93.158893,29.9863051 91.373286,30.4591525 L91.373286,30.4591525 L91.373286,30.4591525 Z M101.801571,30.5400508 C99.714214,30.572661 99.932786,27.628339 101.674679,27.3398644 C102.970321,27.1260169 103.573821,27.8948644 104.426857,28.5997458 C103.666714,29.6978305 102.816714,30.5243729 101.801571,30.5400508 L101.801571,30.5400508 L101.801571,30.5400508 Z M116.752464,28.7044746 C116.39425,28.046 116.178714,27.0796102 116.361464,26.3465085 C116.45375,25.9771356 116.573964,25.6403729 116.838679,25.5481864 C116.988036,25.4986441 117.083964,25.5588475 117.121607,25.5876949 C117.556929,25.8780508 117.338357,27.8189831 116.752464,28.7044746 L116.752464,28.7044746 L116.752464,28.7044746 Z" id="La-Moulade" fill="#000000"></path>
            <g id="Stroke" transform="translate(1.000000, 2.000000)" stroke="#FFFFFF" stroke-width="3" stroke-linecap="round" stroke-linejoin="round">
                <path d="M81.3840468,23.3602419 C81.8356594,22.8980682 81.838174,22.2637988 81.9732554,21.6972211 C82.2863668,20.3836218 82.6093352,19.0623782 82.7726802,17.7252427 C83.0354001,15.575808 83.2452139,13.4193325 83.1106353,11.2391197 C83.0269512,9.88337656 82.8575713,8.55740565 82.4347251,7.26895179 C82.3348473,6.96428928 82.1887018,6.67592103 81.9926677,6.40847382 C81.4842264,5.71496176 81.1273618,5.71295012 80.5238706,6.35697589 C79.8378016,7.08901081 79.5469188,8.00531172 79.3381108,8.93036326 C79.010918,10.3800499 78.8196112,11.8543791 78.8655771,13.3524456 C78.9401083,15.7802909 79.2301865,18.1699152 79.9688598,20.4958712 C80.1569479,21.0882984 80.3706844,21.6697623 80.5703394,22.2569593 C80.7183959,22.6922776 80.8778182,23.1210582 81.2437351,23.396552 C81.4179429,23.5278113 81.4161324,23.6954813 81.4202563,23.8133633 C81.4525431,24.7277531 81.944489,25.4581787 82.3412845,26.2259202 C82.8666237,27.2420989 83.4777592,28.2097972 84.2082854,29.0867706 C85.0221939,30.0638229 85.9951224,30.8306592 87.3183776,31.0044647" id="Stroke-1"></path>
                <path d="M50.7065738,4.65201247 C50.8104749,5.30579468 50.6780086,5.96460599 50.7246786,6.61205154 C50.7807027,7.3887448 50.6135356,8.15075312 50.6897766,8.92835162 C50.7432862,9.47310308 50.6319421,10.0328412 50.6102164,10.5865445 C50.6029745,10.7722186 50.4293702,10.7809692 50.3556436,10.8888936 C50.0966453,11.2680873 50.0102455,11.7143691 49.9065456,12.1464688 C49.1623402,15.2453965 48.4261815,18.3462352 47.336578,21.3484032 C46.0309246,24.9459152 44.4195023,28.3975835 42.4091723,31.6586492 C41.8201648,32.6140765 41.3256037,33.6340773 40.4981166,34.424852 C40.3642421,34.5527922 40.2398224,34.6914946 40.0448947,34.7259942" id="Stroke-3"></path>
                <path d="M56.2888681,14.5593275 C56.5743195,14.8357265 56.6524716,15.1785096 56.6438215,15.5652469 C56.6037899,17.3588229 56.5168872,19.1538071 56.5555106,20.9459751 C56.5985597,22.9403126 56.689184,24.9415902 57.2470111,26.879803 C57.5120443,27.8006301 57.8633768,28.6807215 58.6020501,29.3450648 C59.6052538,30.2474855 61.2222081,30.3269451 62.5275597,29.2978919 C62.738681,29.1315295 62.9078598,28.8750457 63.2290177,28.8922452" id="Stroke-5"></path>
                <path d="M5.796765,17.2750382 C5.4943153,16.5855495 5.4410069,15.8563308 5.3788473,15.1138354 C5.28862535,14.0358994 5.11250648,12.9634954 4.93689052,11.8947124 C4.71188886,10.5254913 4.67095204,9.14349626 4.75654722,7.77105653 C4.89675835,5.52305154 5.42742835,3.38377556 6.90145578,1.58285702 C7.41040008,0.960959268 7.98190632,0.411581047 8.76594206,0.182857855 C10.4460618,-0.307076475 11.8627575,0.163546135 12.7360094,1.88651372 C13.4159429,3.22807481 13.4727717,4.67323525 13.2744242,6.10823691 C12.9331499,8.57752203 12.0607027,10.861133 10.5192854,12.845714 C9.23626293,14.4974697 7.64244248,15.8392319 6.04228537,17.167315 C5.89483234,17.2897232 5.75120141,17.3585212 5.68783483,17.5743699 C5.2994882,18.8959152 4.01123549,19.2817473 3.07904264,20.0385254 C3.04464364,20.0664871 2.9804724,20.0578371 2.93018146,20.0661854" id="Stroke-7"></path>
                <path d="M5.54531031,26.578862 C5.02409501,26.4168246 4.61492793,26.0362228 4.08938761,25.8669435 C2.6569005,25.4057756 1.0156054,26.207212 0.374295345,27.1381978 C-0.233822693,28.0211056 -0.0513671654,29.3937465 0.565803242,30.0496409 C1.35245411,30.8857781 2.27971845,31.0563649 3.47493292,30.5325345 C4.42502934,30.1161255 5.12678911,29.3733283 5.44382319,28.3387431 C5.54380158,28.0123549 5.71941754,27.7334414 5.94763782,27.4840989" id="Stroke-9"></path>
                <path d="M50.7065738,10.7875071 C51.0948199,11.1385378 51.187154,11.6079534 51.2067675,12.0951721 C51.2491125,13.15098 51.2466985,14.2093026 51.3163012,15.2629983 C51.4590268,17.4244023 51.5634308,19.5874156 51.6798041,21.7500266 C51.7058548,22.2348313 51.7455846,22.7218487 51.7658016,23.2092685 C51.7802854,23.5586899 51.9864782,23.8206052 52.215302,24.064315" id="Stroke-11"></path>
                <path d="M56.7414865,10.9886708 C56.5906137,12.0950715 56.439238,13.2013716 56.2899745,14.308074 C56.2811233,14.3738545 56.3168298,14.4799684 56.2847442,14.5035046 C55.4304017,15.1306326 55.4449861,16.1606916 55.1474649,17.0288138 C54.4911682,18.9439933 54.0036478,20.9152976 53.2715123,22.8070416 C53.0703485,23.3268487 52.8605347,23.8588263 52.3563178,24.1476974 C52.197499,24.238724 52.2360219,24.3816509 52.2337085,24.4175586 C52.1886478,25.1198213 51.9348797,25.7831588 51.8632654,26.4782801" id="Stroke-13"></path>
                <path d="M107.434753,13.302054 C107.123251,14.5271413 107.113294,15.768724 107.170827,17.024187 C107.208344,17.84232 107.209249,18.6655827 107.143267,19.4886442 C107.087243,20.1889958 107.135522,20.8952818 107.094787,21.6007631 C107.0453,22.4558096 107.059885,23.319808 106.919774,24.1628853 C106.731083,25.298857 107.198587,26.2898903 107.720506,27.1618346 C108.639825,28.6974181 109.931397,29.880261 111.757058,30.3608412 C112.977821,30.6822003 114.128075,30.6466949 115.229145,29.9974389 C115.627952,29.7622785 115.833541,29.3282677 116.185377,29.043118" id="Stroke-15"></path>
                <path d="M66.4476378,29.1939909 C66.6835023,28.1443184 66.8961324,27.0967581 66.5519412,26.0244547 C66.4041865,25.5638903 66.1917575,25.1561313 65.7929504,24.8701771 C65.1606927,24.4167539 64.4816644,24.4669443 63.9348007,25.0215528 C63.0701989,25.8982244 62.7436096,28.2411787 63.5302604,29.345266 C64.0329687,30.0509485 64.8774541,30.5647207 65.7908382,29.8438504 C66.0126212,29.6688379 66.1961831,29.4454456 66.3973469,29.2442818" id="Stroke-17"></path>
                <path d="M20.4314283,28.3390449 C20.3999462,27.9753408 20.4888606,27.6284339 20.5832064,27.2831363 C20.6902255,26.8910682 20.625149,26.5047332 20.5277858,26.12735 C20.3897874,25.5920532 19.9352579,25.4349443 19.4759005,25.4335362 C18.0428099,25.4292111 16.8250651,25.9487165 16.1224001,27.2412943 C15.4656004,28.449685 16.200351,29.5099185 17.4228232,29.7528238 C18.0560867,29.8786517 18.7728332,29.5135395 19.3739105,29.1414871 C19.4841482,29.0732926 19.5675306,28.9610432 19.6786736,28.8949609 C20.0819063,28.654872 20.4176486,28.2207606 20.9867409,28.4338936 C21.0548348,28.4593408 21.1528016,28.4083458 21.2359828,28.3890341 C22.3256869,28.1355677 22.5223244,28.2441962 22.998982,29.2933658 C23.328287,30.0181588 23.7999155,30.6338204 24.4530942,31.1072594 C25.2750493,31.7030058 26.1072638,31.7669759 26.9692505,31.2056284" id="Stroke-19"></path>
                <path d="M81.5852106,25.1707157 C81.3337559,25.3618213 81.2179861,25.62434 81.1270601,25.9233699 C80.600514,27.6549875 79.5942929,28.9633566 77.811982,29.5416018 C77.1420061,29.7589593 76.3723535,29.4406176 76.003218,28.8417531 C75.6605356,28.2858371 75.5244483,27.6603184 75.399425,27.0314805 C75.3827284,26.9476958 75.4147135,26.8670291 75.3546661,26.7764048 C75.2080177,26.5550241 75.146361,26.1951421 74.8922912,26.1495786 C74.5771682,26.0931521 74.4218697,26.4366392 74.3002663,26.6830648 C74.0578639,27.1738038 73.865149,27.6888836 73.6369288,28.1871663 C73.4184649,28.6643267 73.1234583,29.0997456 72.7792671,29.4913109 C72.346765,29.983458 71.9658614,29.9660574 71.5809346,29.4428304 C71.0321599,28.6971164 70.8666021,27.7970091 70.6220875,26.930798 C70.4407384,26.2884821 70.3600717,25.616394 69.8295023,25.1075503 C69.6262264,24.9126226 69.7193652,24.5540482 69.7165489,24.2654788" id="Stroke-21"></path>
                <path d="M93.4538722,26.3776983 C93.242248,26.4095827 93.2585422,26.2660524 93.250898,26.1263441 C93.2303793,25.7526825 93.1184317,25.3855586 92.9383901,25.0774763 C92.5975181,24.4941014 91.8611582,24.2718155 91.1952056,24.5768803 C89.9495996,25.1473807 89.009159,26.0416542 88.7447293,27.4372278 C88.6278531,28.0539958 88.8577833,28.6688529 89.2311432,29.1927839 C89.8898539,30.1174331 90.8007234,30.2268662 91.6363577,29.4380025 C92.1439944,28.9588304 92.6229653,28.4357041 93.0319313,27.8721438 C93.2007076,27.6395985 93.1552446,27.2498437 93.20111,26.9306974 C93.225149,26.7641338 93.2359113,26.5956592 93.2527085,26.4279892" id="Stroke-23"></path>
                <path d="M5.54531031,18.8843483 C6.10011995,19.4648063 6.14155968,20.2060948 6.20080241,20.9461762 C6.33618562,22.6374605 6.10504846,24.3054098 5.89654223,25.9752702 C5.88598113,26.0598595 5.88125378,26.1520931 5.84323383,26.2248138 C5.77674921,26.3517481 5.68642668,26.4662103 5.63995786,26.5355112 C5.66641089,27.2057889 6.159765,27.5252369 6.54016567,27.946675 C7.24051729,28.7225636 7.91270599,29.5246035 8.7163552,30.1964904 C9.7903685,31.0944855 10.9639579,31.820586 12.3854815,32.0052544 C13.9813136,32.2125536 15.4774691,31.9907706 16.7657218,30.9105212 C17.114238,30.6183308 17.3241524,30.2790682 17.413972,29.8477731" id="Stroke-25"></path>
                <path d="M93.2024175,27.8361355 C93.4973236,27.9275644 93.802489,27.9527099 94.1057434,27.9993799 C94.8628232,28.1160549 95.4049595,28.6154439 95.9191341,29.1427947 C96.1496677,29.3792627 96.370445,29.6163342 96.7212746,29.7031363 C97.3769678,29.8654755 97.8645888,29.5745927 98.2728506,29.1353516 C98.4949354,28.8964697 98.7127958,28.6664389 98.9858756,28.4899177" id="Stroke-27"></path>
                <path d="M105.825443,28.5402086 C105.490204,28.2552602 105.141487,27.984192 104.82395,27.6807365 C104.576317,27.4441679 104.498567,27.5514888 104.304444,27.7751829 C103.713827,28.4557199 103.224497,29.2252718 102.362912,29.661596 C101.240016,30.2301854 100.158962,29.7902402 99.5202671,29.1111114 C98.8613552,28.4102569 99.0972197,27.726803 99.3502837,27.0360067 C99.6461956,26.2282336 100.234901,25.7468487 101.148285,25.7200939 C102.614166,25.6770449 103.590011,26.4804929 104.417297,27.5595353" id="Stroke-29"></path>
                <path d="M69.615967,25.2712976 C69.19644,25.5784746 69.3242796,26.0741421 69.2273186,26.4814988 C69.0519038,27.2185628 68.8380667,27.9360133 68.4551515,28.5880856 C67.8704691,29.5837456 67.4831283,29.7005212 66.4727833,29.2442818" id="Stroke-31"></path>
                <path d="M116.285959,28.1378811 C117.199343,27.2492402 117.531162,26.1670798 117.337542,24.9199651 C117.298315,24.6676052 117.225796,24.4236941 117.045251,24.2109634 C116.651171,23.7464763 116.17894,23.7521089 115.77792,24.2106617 C115.416831,24.6235503 115.279235,25.113384 115.291506,25.6230324 C115.313131,26.5227373 115.366741,27.4240515 116.127542,28.0961397 C116.361194,28.3024331 116.281433,28.6494406 116.285959,28.9425362" id="Stroke-33"></path>
                <path d="M116.386541,29.043118 C116.89468,29.6017498 117.333519,30.2469825 118.097137,30.4994431 C119.151033,30.8478587 120.088356,30.5519468 120.963016,29.9483549" id="Stroke-35"></path>
                <path d="M106.780971,25.0198429 C106.121154,25.4620008 105.729891,26.1492768 105.223662,26.731143 C105.01244,26.9739476 104.819625,27.2326442 104.618461,27.4840989" id="Stroke-37"></path>
                <path d="M89.531179,29.6969002 C88.9657076,30.348872 88.3185638,30.8611355 87.4196636,30.9602086 C87.3541848,30.9674505 87.2947409,31.0596841 87.3183776,31.1553375" id="Stroke-39"></path>
            </g>
        </g>
    </g>
</svg>