<?xml version="1.0" encoding="UTF-8" standalone="no"?>
<svg width="151px" height="45px" viewBox="0 0 151 45" version="1.1" xmlns="http://www.w3.org/2000/svg" xmlns:xlink="http://www.w3.org/1999/xlink">
    <!-- Generator: Sketch 3.7.2 (28276) - http://www.bohemiancoding.com/sketch -->
    <title>La Moulade</title>
    <desc>Created with Sketch.</desc>
    <defs></defs>
    <g id="Page-1" stroke="none" stroke-width="1" fill="none" fill-rule="evenodd">
        <g id="Hone" transform="translate(-98.000000, -281.000000)" fill="#000000">
            <g id="Logo" transform="translate(98.000000, 274.000000)">
                <path d="M34.0447576,46.3236951 C33.3739469,46.7600345 32.7001145,46.8534237 32.1048455,46.6117105 C30.9301713,46.1369167 30.0848592,44.9259963 29.7441659,43.6593563 L29.7441659,43.6577868 C29.4049834,42.5379012 28.95551,42.202014 28.95551,42.202014 C28.4116095,41.7648898 27.710582,41.7837246 26.9581862,42.527699 C27.6312632,39.7346558 25.9519701,37.8833524 22.502734,39.578484 C22.502734,39.578484 18.8359375,41.5168983 20.1964444,44.0234957 C20.5371377,44.6764353 21.1014345,45.227353 21.6846168,45.5075206 C20.9994532,46.168308 20.5386485,46.9122825 18.45143,47.221487 C13.797303,47.912881 10.8428652,43.9144108 8.8546064,41.1143046 C9.52239545,37.8574545 9.24515724,34.0316367 9.12353502,32.2376224 C9.04950411,31.1546217 9.51333044,29.3708096 10.203782,28.652733 C11.3603262,27.4520148 11.8256633,26.9960558 13.6719037,25.0497936 C19.6548101,18.7448458 19.9244941,5.33604103 11.7644745,7.17086402 C7.02498528,8.23659953 5.52245991,16.0428375 6.27334489,21.7474261 C6.57022395,23.998969 7.15944959,26.6201447 6.94415561,28.0366783 C6.57551188,30.4891256 3.22296912,32.036718 3.91190985,33.2876623 C5.12964283,34.7873829 7.5099633,32.0100353 7.70259475,32.7626424 C8.37718256,35.0683352 7.63687343,37.8613785 7.4495299,40.1137061 C5.15910411,38.471155 0.668902628,39.6561775 0.0849649191,42.1510031 C-0.102378615,43.1351212 0.0320856958,44.2966002 0.370512725,45.0782442 C2.07397913,47.7213939 7.36492314,47.3658871 8.43006178,43.0260363 C10.3374909,45.6997925 14.9787759,49.4118168 19.1532129,48.1506703 C21.4111557,47.5463872 22.1786599,46.7906411 22.8691114,45.8653817 C22.8766656,45.8551796 22.8819535,45.8465469 22.8879969,45.8386991 C25.0273392,45.2077335 28.0663837,42.7819688 28.8557949,44.5273265 C29.3407729,45.600125 30.4104441,46.9075738 31.8359169,47.4859589 C32.1501705,47.6130938 32.4742446,47.6766612 32.8051175,47.6766612 C33.3709252,47.6766612 33.9525966,47.4890981 34.5229368,47.1186804 C34.7336983,46.9805586 34.7986642,46.6925432 34.6649553,46.4728039 C34.5335127,46.2546342 34.2562745,46.1871428 34.0447576,46.3236951 L34.0447576,46.3236951 Z M2.39503156,45.1041421 C0.347094783,41.7068159 5.11453448,38.7513225 7.19722046,41.6903354 C7.36945564,44.333485 3.72230007,46.8989411 2.39503156,45.1041421 L2.39503156,45.1041421 Z M8.40135592,27.9943 C7.74943064,24.5765694 7.24254551,21.3330606 7.54546792,16.8236967 C7.83554823,12.4995416 11.682134,6.66310933 15.0596056,9.46792429 C18.7475537,12.5301481 16.0016111,20.4015231 13.2677553,23.8490754 C12.0923257,25.330746 10.0239927,27.3656887 8.40135592,27.9943 L8.40135592,27.9943 Z M21.7745115,43.8265151 C20.7879363,43.3258235 21.2638493,41.1268611 22.8472043,40.4966803 C23.7521945,40.1254778 25.710992,39.8249059 25.7933325,40.6371564 C25.9693448,42.9663928 23.7204669,44.6544614 21.7745115,43.8265151 Z M150.879135,44.8192658 C150.706145,44.6191461 150.410776,44.6065896 150.219656,44.7839506 C149.562443,45.4007901 148.699,45.6660468 147.780413,45.5326337 C146.916971,45.4054988 145.718123,44.6858527 145.489232,44.0305588 C145.349479,43.6303193 145.38725,43.1892712 145.949281,42.4515751 C146.944166,41.1472655 147.244822,39.3100881 146.203857,37.6385 L146.122271,37.5333391 C145.509628,36.8286038 145.28678,36.8890321 144.855436,36.9000191 C144.196712,36.9894844 143.24262,37.891985 142.997865,38.8831661 C142.650373,40.2934214 143.111177,42.0568291 143.823536,43.1555255 L144.057716,43.5149562 C144.217864,43.7095824 144.152898,43.9677761 143.899078,44.2181219 C142.689654,45.4321814 141.082881,45.5962011 139.302362,45.1363182 C136.626674,44.4394308 133.962316,41.308146 133.969871,39.5062839 C133.98649,35.1727114 135.088644,31.2487957 134.451071,28.0225522 C134.071096,26.1006183 134.372508,23.5602752 133.47205,24.585202 C131.296448,27.0611928 133.358738,37.0389257 132.018627,38.927114 C131.656782,39.4788165 131.656782,39.4788165 131.602392,39.5533709 C131.206553,40.1027191 130.942913,40.3609128 130.63999,40.7595826 C130.516102,40.9259566 130.63999,40.7595826 130.185984,41.3285504 C128.768066,39.9567494 127.293491,39.2810512 125.993417,39.2810512 C124.664638,39.2810512 123.56475,40.229854 123.083549,41.4109526 C122.944552,41.7531181 122.873543,42.118827 122.864478,42.4861055 C122.811599,42.5363316 122.767785,42.5991143 122.739079,42.6728839 C122.426336,43.5055388 121.870349,44.0580262 121.195761,44.250298 C119.87378,44.6277787 119.572369,42.2153553 117.266079,42.1431553 C116.506885,42.1196118 117.2132,41.2618438 116.992618,40.1906148 C116.094427,36.6598755 113.204955,37.2398302 110.971941,40.0485691 C110.334369,40.8514022 109.383298,42.7623492 110.842764,44.7454962 C110.755891,45.0680421 109.852412,45.8002447 109.101527,45.8261426 C106.529331,45.6990077 104.806979,42.5049403 103.44345,40.3883802 C103.44345,40.3883802 103.744862,40.9298805 103.44345,40.3899497 C103.142039,39.8500189 102.323922,38.5606202 102.337519,37.0679627 C102.349606,35.6945922 105.076663,28.6754917 104.303871,20.3065643 C104.17545,18.9135742 103.667809,13.3408291 101.051043,14.2864928 C100.028963,14.6553409 97.1077639,19.1050613 98.1154908,28.4384872 C98.3209644,30.3376624 98.9985739,33.5803864 100.187601,36.2894578 L100.192133,36.2894578 C100.499588,36.9957626 101.113743,37.9429959 101.19004,38.4554593 C101.233099,38.7481834 100.819885,40.18983 100.461062,40.9479306 C99.5636261,42.6830861 98.1154908,44.0305588 96.7141914,44.0815697 C95.2872078,44.1333653 94.8415115,42.7152622 94.7146014,41.5223918 C94.7130905,41.5090505 94.7055364,41.4925701 94.7010038,41.4792287 C94.6224404,40.9290958 94.5846696,40.692876 94.3686202,40.0956561 C94.040769,39.1900163 93.2317169,39.5651427 92.9272836,39.8398168 C92.4672344,40.254967 92.1001015,41.3709287 92.1001015,41.3709287 C91.7193711,42.3982098 90.6632974,44.1694654 90.1858736,44.1678958 C89.7212918,44.1553393 89.2030755,42.8989015 88.9447227,41.7429159 C88.7898621,41.0523067 88.6130944,40.2965606 88.3486983,39.6342036 C88.0835468,38.8643313 87.8803395,37.9547676 87.1211449,38.0253981 C86.3611949,38.094459 86.3453311,39.1547011 86.3453311,39.1547011 C86.3022723,39.868069 86.2176656,40.0721126 86.1617647,40.6426499 C85.9608236,41.7382072 84.7529111,44.7910136 83.7905092,43.8092499 C84.3049485,42.7042752 84.1349796,41.5969462 84.0156236,40.6324477 C83.6696424,37.8346958 80.5618549,37.164491 79.3048403,38.9208357 C78.1898441,40.4786302 78.2812496,42.5865578 78.5131627,43.4984758 C77.3264019,44.2824741 76.6457707,45.0460681 74.7096357,44.3852807 C72.7735008,43.7244933 72.0286591,40.5217933 71.7332909,37.2100084 C71.0972294,30.0935949 71.9659595,21.317365 71.1803253,21.3856411 C70.624338,21.4813847 70.1370938,23.6403231 69.7571188,24.9077479 C69.1490077,26.9364123 66.6787926,36.1631077 65.6204527,36.8780452 C65.3432145,32.9941534 64.9164036,26.318788 64.7328371,21.9993415 C64.6444533,19.8984771 64.6731592,14.9637606 63.9698655,13.7928642 C62.9764915,12.1401109 62.5882069,19.3585463 62.34043,20.9665669 C62.1115385,22.453731 60.1731372,33.0851882 55.8249543,41.4651027 C54.1872092,44.6215005 51.2629881,48.5626814 50.8097376,49.2258232 C48.2322532,52.9967062 52.0025418,51.8666184 52.8962007,50.3386457 C54.7590602,47.1547804 59.9978804,36.2549274 61.5759475,29.8793491 C62.5587456,25.9099159 63.4380516,22.8233638 63.645036,22.1971069 C64.0393639,28.0084261 64.2561687,41.6032245 65.1007254,40.9447914 C65.5705951,40.6214608 66.7581114,38.5284441 67.2808603,37.0554062 C67.8882159,35.347718 68.7607231,32.0469201 69.3877196,30.0771144 L70.4385053,26.8987427 C70.4906291,30.4930495 68.5424075,46.1871428 75.7536227,45.9469992 C76.9925074,45.9054057 78.1777574,45.2257835 78.9241099,44.467683 C79.5647039,45.7060708 81.4940401,47.0951369 83.1325406,45.0272333 C83.2821133,45.1755574 86.1829164,46.8173237 87.1211449,40.0328734 C87.1354978,39.9175103 87.2540984,39.8664994 87.3107547,40.034443 C87.5562654,40.6646238 87.7126368,41.2846025 87.8674974,41.9830595 C88.1847727,43.4011627 89.0859857,46.0709949 89.9902205,46.0709949 C91.0410062,46.0709949 92.3048196,44.1286566 92.70368,42.8376884 C93.5384163,40.1372496 93.6736361,41.460394 93.8730663,42.3369967 C94.4758894,44.9903485 95.8598143,45.3780314 96.6258076,45.3537031 C98.8852612,45.2815031 101.501272,42.5802795 101.838188,39.8829798 C102.258956,41.4258635 105.233034,47.0276456 108.880945,47.0276456 C110.116053,47.1116174 111.812721,45.6425033 111.891284,45.6888055 C112.568893,46.0882602 113.579642,46.1847885 114.330527,45.4926097 C114.330527,45.4926097 114.78831,45.1112051 115.174328,44.5697048 C116.141263,43.113932 117.423206,43.0950972 118.31762,43.8265151 C119.469632,44.7706093 120.109471,46.0246927 121.691315,45.473775 C122.531339,45.1810508 123.278447,44.1435675 123.278447,44.1435675 C123.815549,45.0853073 124.757554,45.6958686 125.934495,45.8190795 C126.059894,45.8324209 126.263857,45.8371295 126.263857,45.8371295 L126.263857,45.8394839 C128.303484,45.8394839 129.500065,44.3193589 130.396746,42.9043949 C130.481353,42.9718863 131.194467,43.6201172 131.425624,43.8068956 C131.551779,43.9120565 131.679445,43.9975979 131.829017,43.9975979 C131.955928,43.9975979 132.081327,43.9512957 132.184819,43.8571217 C132.407667,43.6546476 132.441661,43.2905082 132.233166,43.0691994 C131.948373,42.7662731 131.152163,42.1015618 131.152163,42.1015618 C131.152163,42.1015618 132.428063,40.229854 132.900955,39.9269277 C133.571766,42.8690797 136.119033,45.5059511 139.088579,46.2773929 C139.645322,46.4233626 140.187712,46.4924235 140.711972,46.4924235 C142.180503,46.4924235 143.973864,45.9218861 144.553269,44.8059245 C145.017096,43.9120565 145.262606,46.2389385 147.64897,46.4782974 C148.458778,46.55913 150.125984,46.1785102 150.846652,45.5012424 C151.037773,45.3207422 151.052126,45.0178159 150.879135,44.8192658 Z M81.2560836,44.8208354 C80.3586476,44.865568 79.8691371,44.297385 79.5941652,42.9444189 C79.2761344,41.3827004 80.3080347,38.2592635 81.732752,39.1460685 C83.4120451,40.1913996 83.0841939,44.7290157 81.2560836,44.8208354 L81.2560836,44.8208354 Z M101.546597,36.2894578 L101.513359,36.2894578 C100.953594,34.8289764 100.497322,33.3943928 100.121124,32.0155288 C99.5590936,29.6753055 99.0454098,27.0156754 99.0469206,23.0077879 C99.1927162,20.2649708 99.8967652,16.2233376 101.298065,16.2233376 C102.031575,16.2233376 102.893506,19.1756918 103.043079,21.2263301 C103.272726,24.3058192 103.037036,26.8210492 102.771129,29.6501924 C102.749977,29.8707165 102.614757,30.7567366 102.591339,30.889365 C102.420615,31.8397374 102.180392,33.1236426 102.014956,34.074015 C101.892578,34.7803198 101.670485,35.5823682 101.546597,36.2894578 L101.546597,36.2894578 Z M113.13319,44.355459 C111.957005,44.5814765 110.705279,42.5685078 111.572498,41.0978241 C112.205538,40.023456 113.34924,38.8007639 114.660644,38.9208357 C116.446451,39.0848554 115.354873,43.7637325 113.13319,44.355459 L113.13319,44.355459 Z M126.108241,44.456696 C123.511116,44.4975047 123.783066,40.8129479 125.950359,40.4519476 C127.562419,40.1843366 128.313304,41.1464807 129.374666,42.0285769 C128.428883,43.4027322 127.371299,44.4370764 126.108241,44.456696 L126.108241,44.456696 Z M144.710396,42.1596357 C144.2647,41.3356134 143.996527,40.1262626 144.223907,39.2088511 C144.338731,38.7466138 144.488303,38.3251853 144.817665,38.2098222 C145.003498,38.1478243 145.122854,38.2231635 145.16969,38.2592635 C145.711324,38.6226181 145.439374,41.0515219 144.710396,42.1596357 L144.710396,42.1596357 Z" id="La-Moulade"></path>
            </g>
        </g>
    </g>
</svg>