<?xml version="1.0" encoding="UTF-8" standalone="no"?>
<svg width="23px" height="25px" viewBox="0 0 23 25" version="1.1" xmlns="http://www.w3.org/2000/svg" xmlns:xlink="http://www.w3.org/1999/xlink">
    <!-- Generator: Sketch 3.7.2 (28276) - http://www.bohemiancoding.com/sketch -->
    <title>Shape</title>
    <desc>Created with Sketch.</desc>
    <defs></defs>
    <g id="Page-1" stroke="none" stroke-width="1" fill="none" fill-rule="evenodd">
        <g id="Hone" transform="translate(-256.000000, -274.000000)" fill="#CACACA">
            <g id="Logo" transform="translate(98.000000, 274.000000)">
                <path d="M180.019162,14.4286728 C179.690692,12.1652549 179.729615,11.4699566 180.119317,8.16605679 C180.558384,4.44349865 178.307511,3.71170951 176.664213,3.17716811 L176.493807,3.12144562 C174.977719,2.62438129 174.382961,2.30040187 172.616723,1.34029845 L171.908045,0.955665341 C170.790678,0.350607873 169.995135,5.68434189e-14 169.238041,5.68434189e-14 C168.477149,5.68434189e-14 167.722428,0.367373932 166.752207,0.960596535 C164.768572,2.17021835 164.051825,2.41875052 162.482574,2.9631543 L162.044456,3.11602131 C159.467487,4.01596416 157.815169,4.85130837 158.306925,8.13745586 C158.7702,11.2332593 158.699,12.1134774 158.403757,14.4301522 C158.003138,17.568857 158.224333,18.8263114 160.32616,20.0882038 C160.931836,20.4516328 161.313943,20.6163347 161.718834,20.7899127 C162.470707,21.113399 163.322261,21.4797867 165.84227,23.2579751 C166.892709,23.9996267 167.992039,24.3753836 169.109406,24.3753836 C171.020892,24.3753836 172.339518,23.2643857 172.352808,23.253044 C174.589441,21.662734 178.037425,20.1636511 178.071601,20.1483644 C180.169631,18.8844994 180.517563,17.8681804 180.019162,14.4286728 L180.019162,14.4286728 Z M176.607252,4.54557436 C176.932874,4.41736333 177.329222,4.45089544 177.719873,4.64025328 C178.961603,5.46820071 179.449561,6.78680191 179.226467,8.67939405 C178.887555,11.5547731 178.853379,12.1593375 179.136281,14.1106108 L179.183273,14.4257141 L178.96635,14.2901063 C178.941667,14.2743264 178.916984,14.2590397 178.892301,14.2442462 C178.158466,13.8300259 177.09616,13.8201635 175.880537,14.2043035 L175.718675,14.2555879 L175.736238,14.0810236 C175.750952,13.9399915 175.757598,13.8024112 175.757598,13.6727208 C175.757598,13.6534892 175.759022,13.6268607 175.760446,13.5923423 L175.762344,13.5568378 C175.785603,13.0301863 175.769464,12.5178352 175.713928,12.0350714 L175.706334,11.9660347 L175.76092,11.926092 C175.795097,11.901436 175.880062,11.8521241 175.945091,11.8156333 C176.496655,11.5020093 177.962903,10.6681445 176.93952,8.125621 C176.865472,7.94119435 176.780506,7.7488778 176.690794,7.54571262 L176.670383,7.50083876 C176.317705,6.70543721 175.834969,5.6156434 176.070404,5.01798272 C176.122617,4.88484049 176.235588,4.6915377 176.607252,4.54557436 L176.607252,4.54557436 Z M173.520965,2.85910611 C174.346886,3.29107868 174.849559,3.50262689 175.762819,3.80244347 L176.04762,3.89465679 L175.862974,4.03075774 C175.621843,4.20877383 175.445267,4.43560874 175.338941,4.70633128 C174.972498,5.63487506 175.515992,6.86027669 175.952211,7.84454296 C176.050942,8.06743291 176.137806,8.26369442 176.209956,8.44220364 C176.894901,10.1444517 176.293972,10.6706101 175.675955,11.0310803 L175.550643,11.104062 L175.513144,10.9600711 C175.267741,10.0251168 174.844338,9.1947038 174.255275,8.49250181 C174.044998,8.24150405 173.840891,8.02157281 173.632037,7.82136635 L173.584096,7.77599937 L173.598336,7.71090761 C173.99136,5.87206547 173.913515,4.29013853 173.368597,3.01049376 L173.24186,2.71314278 L173.520965,2.85910611 L173.520965,2.85910611 Z M167.592844,1.50253472 C168.234119,1.17165163 168.73964,1.02470205 169.235667,1.02470205 C169.719828,1.02470205 170.233893,1.1632686 170.902225,1.47294756 L170.98814,1.51239711 L170.987665,1.51338335 L171.065036,1.54938106 C171.666914,1.86103251 173.573653,3.17371627 172.919087,7.04223774 L172.890607,7.2118708 L172.74963,7.12113684 C171.665965,6.42435917 170.395755,6.1935793 168.975075,6.43422156 C167.648854,6.65760463 165.816638,7.95993289 164.075558,9.91810991 C163.186506,10.9176629 162.450297,11.9448305 161.947149,12.8881679 L161.914397,12.9493147 L161.846994,12.9478353 C161.133569,12.9330417 160.360811,12.8940853 159.550079,12.8334316 L159.436159,12.8250486 L159.446127,12.7071931 C159.524447,11.7840736 159.503561,11.0226973 159.370654,9.8973989 L159.33363,9.58771994 L159.557199,9.79680255 C160.145786,10.3500825 160.949873,10.5438784 161.922466,10.3791765 C163.677787,10.0813324 164.208465,8.20057514 164.72158,6.38145778 C165.258904,4.47456517 165.814739,2.50307393 167.592844,1.50253472 L167.592844,1.50253472 Z M172.6865,8.07137787 L172.661342,8.15126321 C171.676882,11.3027891 168.525565,12.8728812 163.028916,12.9517803 L162.821961,12.9552321 L162.932559,12.7732711 C163.387765,12.0261952 163.983947,11.2317799 164.656551,10.4753348 C166.233871,8.70207754 167.978273,7.43426764 169.100862,7.24540292 C169.446894,7.18721484 169.765396,7.15910703 170.074879,7.15910703 C171.025638,7.15910703 171.858205,7.44117131 172.620995,8.02107969 L172.6865,8.07137787 L172.6865,8.07137787 Z M159.299929,6.4149899 L159.299929,6.4149899 C159.453721,5.13830385 161.145911,4.36164084 162.755982,3.79948476 L163.142836,3.66486317 C163.839174,3.42323468 164.342796,3.24916354 164.87917,3.00605569 L165.172514,2.87340658 L165.022519,3.16730572 C164.533137,4.12839538 164.229825,5.20290249 163.962587,6.1501848 C163.402005,8.13646963 162.998063,9.36433686 161.794781,9.5689814 C161.609661,9.60004792 161.433084,9.61582774 161.270748,9.61582774 C160.76143,9.61582774 160.362709,9.46591945 160.051328,9.1567336 C159.32746,8.4387518 159.230628,7.15910703 159.299929,6.4149899 L159.299929,6.4149899 Z M162.349193,20.1099011 L162.23812,20.0610823 C161.957592,19.9382955 161.633869,19.7864148 161.170593,19.5087886 C159.114809,18.2745108 158.931112,16.9095564 159.287113,14.1189938 L159.347396,13.6426405 L159.452772,13.6505304 C160.118256,13.7013217 160.766651,13.7373194 161.379447,13.7565511 L161.536562,13.7614823 L161.480551,13.9143493 C161.315842,14.3645673 161.223756,14.7674458 161.207617,15.1116431 C161.155879,16.1610012 161.662349,16.7128017 162.09572,16.9909211 C162.529566,17.2690404 163.112932,17.4100725 163.83063,17.4100725 C165.350989,17.4100725 167.31991,16.763593 169.233294,15.6363221 C170.025514,15.1698312 170.786881,14.9331339 171.495084,14.9331339 C172.444419,14.9331339 173.29265,15.3799001 173.823328,16.1590287 L173.921584,16.3094301 L173.866523,16.3764943 C173.474922,16.854327 172.983167,17.3163798 172.405971,17.7488455 C170.271392,19.3485248 167.218331,20.3816099 164.629969,20.3816099 C163.784587,20.3816099 163.007556,20.3219424 162.349193,20.1099011 L162.349193,20.1099011 Z M172.508025,22.0434221 L172.518942,22.0562432 L172.420686,22.1376079 C172.348536,22.1869199 172.277336,22.2357387 172.207085,22.2855437 C172.204237,22.2894887 170.967254,23.3506816 169.122222,23.3506816 C168.058492,23.3506816 167.016123,22.9956356 166.024068,22.2958993 C165.55035,21.9615643 165.111282,21.6617477 164.718732,21.4048325 L164.400705,21.1962431 L164.777116,21.1898325 C167.546326,21.1419999 170.646854,20.0788346 172.868297,18.4150498 C173.346762,18.056552 173.774912,17.6753707 174.14183,17.2808752 L174.285179,17.1260358 L174.331697,17.3356115 C174.666337,18.8603366 173.951963,20.6972063 172.508025,22.0434221 L172.508025,22.0434221 Z M174.307489,15.466196 C173.904022,14.9597624 173.002153,14.1101177 171.491762,14.1101177 C170.647803,14.1101177 169.756852,14.3833058 168.842643,14.9217922 C167.080677,15.9603016 165.155426,16.6048086 163.818763,16.6048086 C163.275743,16.6048086 162.835727,16.499281 162.511054,16.2916778 C162.13939,16.0535011 161.971357,15.681196 161.996989,15.1530652 C162.014552,14.7955536 162.13844,14.355198 162.364857,13.8443263 L162.394761,13.776769 L162.561369,13.7772621 C165.262226,13.7772621 167.404875,13.4542689 169.112729,12.7905303 C171.167564,11.99217 172.564985,10.6597614 173.265594,8.8307817 L173.330623,8.66065552 L173.451663,8.79429087 C173.520965,8.87072437 173.589792,8.94962347 173.659093,9.03246752 C174.613649,10.1696008 175.055565,11.6790392 174.972498,13.5183744 C174.969175,13.5864249 174.966802,13.6386956 174.966802,13.6727208 C174.966802,14.2570673 174.807314,14.8547279 174.49166,15.4484437 L174.411916,15.5978588 L174.307489,15.466196 L174.307489,15.466196 Z M177.220523,19.5669767 L177.190619,19.5827565 C176.988885,19.671518 175.950313,20.1320915 174.742284,20.7687086 L174.432326,20.9319311 L174.591815,20.6114035 C174.844338,20.1039836 175.019965,19.5788115 175.113474,19.0506807 C175.275336,18.1374236 175.193693,17.2379739 174.876615,16.4504622 L174.852882,16.3922741 L174.887532,16.3395104 C175.115373,15.9948199 175.302392,15.6373084 175.442893,15.2788106 L175.459981,15.2334436 L175.502701,15.2151982 C175.756648,15.1042463 176.651871,14.7413105 177.521937,14.7413105 C177.915436,14.7413105 178.249602,14.8172509 178.513992,14.966666 C178.942142,15.2087876 179.203209,15.6506226 179.312382,16.3178131 C179.270137,17.8385933 178.742307,18.6527333 177.220523,19.5669767 L177.220523,19.5669767 Z" id="Shape"></path>
            </g>
        </g>
    </g>
</svg>